<svg width="247" height="92" viewBox="0 0 247 92" fill="none" xmlns="http://www.w3.org/2000/svg">
<path d="M5.85875 20.8807L15.3904 26.1756C16.7879 26.9557 18.5796 26.5075 19.3679 25.1963L33.2533 2.0084C33.7908 1.11209 33.0921 0 31.9812 0C31.6946 0 31.4079 0.0829916 31.1571 0.232376L5.71542 16.3991C3.99542 17.4946 4.06708 19.8682 5.85875 20.8641V20.8807ZM0 28.4993V49.0148C0 50.3427 1.86333 50.8407 2.63375 49.7452L13.3837 34.4747C14.2796 33.2132 13.8496 31.5202 12.4521 30.7401L4.33583 26.2253C2.43667 25.1631 0 26.4411 0 28.4993ZM52.7467 2.0084L66.65 25.1797C67.4383 26.4909 69.2479 26.9391 70.6275 26.159L80.1592 20.8641C81.9508 19.8682 82.0225 17.4946 80.3025 16.3991L54.8429 0.232376C54.5921 0.0829916 54.3054 0 54.0187 0C52.9079 0 52.2092 1.11209 52.7467 2.0084ZM86 28.4993C86 26.4411 83.5633 25.1631 81.6642 26.2253L73.5479 30.7401C72.1504 31.5202 71.7383 33.2132 72.6162 34.4747L83.3662 49.7452C84.1367 50.8573 86 50.3427 86 49.0148V28.4993ZM77.1671 69.3312L48.3929 72.4683C46.9417 72.6177 45.8667 73.7629 45.8667 75.1074V83.8713C45.8667 84.4855 46.4042 85 47.085 85C47.2283 85 47.3717 84.9834 47.515 84.9336L78.4571 74.3107C79.55 73.9455 80.2667 72.9828 80.2667 71.9039C80.2667 70.3603 78.8154 69.1652 77.1671 69.3478V69.3312ZM38.915 84.9834C39.5779 84.9834 40.1333 84.4855 40.1333 83.8547V75.124C40.1333 73.7795 39.0404 72.6509 37.6071 72.4849L8.83292 69.3312C7.18458 69.1486 5.73333 70.3437 5.73333 71.8873C5.73333 72.9662 6.45 73.9289 7.54292 74.2941L38.485 84.917C38.6283 84.9668 38.7717 84.9834 38.915 84.9834ZM4.60458 63.555L35.2242 66.9078C36.6217 67.0572 37.625 65.663 36.9262 64.5343L21.5717 39.6368C20.5146 37.9106 17.8629 37.8442 16.6804 39.504L2.54417 59.4552C1.37958 61.0984 2.49042 63.3226 4.60458 63.555ZM83.3662 59.4386L69.3196 39.5206C68.155 37.8608 65.4854 37.9272 64.4283 39.6534L49.1275 64.4845C48.4288 65.6132 49.4142 67.0074 50.8296 66.858L81.3058 63.5384C83.42 63.306 84.5308 61.0984 83.3662 59.4552V59.4386ZM44.505 61.2644L58.5517 38.4915C59.6446 36.7155 58.265 34.5245 56.0612 34.5245H29.9387C27.735 34.5245 26.3554 36.7321 27.4483 38.4915L41.495 61.2644C42.1579 62.3267 43.8242 62.3267 44.4871 61.2644H44.505ZM28.38 29.213H57.62C59.8058 29.213 61.1854 27.0387 60.1283 25.2626L45.795 1.36106C45.2933 0.514548 44.3258 0 43.2867 0H42.7133C41.6742 0 40.7067 0.531146 40.205 1.36106L25.8717 25.2626C24.8146 27.0387 26.1942 29.213 28.38 29.213Z" fill="black"/>
<path d="M105.768 32V14.5H113.368C114.418 14.5 115.377 14.75 116.243 15.25C117.11 15.7333 117.793 16.4 118.293 17.25C118.81 18.0833 119.068 19.025 119.068 20.075C119.068 21.075 118.81 22 118.293 22.85C117.793 23.6833 117.11 24.35 116.243 24.85C115.393 25.3333 114.435 25.575 113.368 25.575H108.943V32H105.768ZM115.918 32L111.468 24.1L114.818 23.475L119.768 32.025L115.918 32ZM108.943 22.75H113.393C113.877 22.75 114.293 22.6417 114.643 22.425C115.01 22.1917 115.293 21.875 115.493 21.475C115.693 21.075 115.793 20.6333 115.793 20.15C115.793 19.6 115.668 19.125 115.418 18.725C115.168 18.325 114.818 18.0083 114.368 17.775C113.918 17.5417 113.402 17.425 112.818 17.425H108.943V22.75ZM123.2 32V14.5H130.475C131.475 14.5 132.375 14.7417 133.175 15.225C133.992 15.7083 134.642 16.3667 135.125 17.2C135.608 18.0333 135.85 18.9667 135.85 20C135.85 21.05 135.608 22 135.125 22.85C134.642 23.6833 133.992 24.35 133.175 24.85C132.375 25.35 131.475 25.6 130.475 25.6H126.45V32H123.2ZM126.45 22.6H130.25C130.667 22.6 131.042 22.4833 131.375 22.25C131.725 22.0167 132 21.7083 132.2 21.325C132.417 20.9417 132.525 20.5083 132.525 20.025C132.525 19.5417 132.417 19.1167 132.2 18.75C132 18.3667 131.725 18.0667 131.375 17.85C131.042 17.6167 130.667 17.5 130.25 17.5H126.45V22.6ZM147.239 32.25C145.922 32.25 144.706 32.025 143.589 31.575C142.472 31.1083 141.497 30.4667 140.664 29.65C139.847 28.8333 139.214 27.8833 138.764 26.8C138.314 25.7 138.089 24.5083 138.089 23.225C138.089 21.9583 138.314 20.7833 138.764 19.7C139.231 18.6 139.881 17.65 140.714 16.85C141.547 16.0333 142.522 15.4 143.639 14.95C144.772 14.5 145.989 14.275 147.289 14.275C148.206 14.275 149.089 14.4 149.939 14.65C150.789 14.9 151.556 15.25 152.239 15.7C152.922 16.15 153.489 16.6583 153.939 17.225L151.889 19.375C151.422 18.925 150.939 18.55 150.439 18.25C149.956 17.95 149.447 17.7167 148.914 17.55C148.381 17.3833 147.831 17.3 147.264 17.3C146.431 17.3 145.656 17.45 144.939 17.75C144.239 18.05 143.622 18.4667 143.089 19C142.572 19.5333 142.164 20.1583 141.864 20.875C141.564 21.5917 141.414 22.375 141.414 23.225C141.414 24.0417 141.564 24.8167 141.864 25.55C142.181 26.2833 142.614 26.925 143.164 27.475C143.714 28.025 144.347 28.4583 145.064 28.775C145.797 29.075 146.572 29.225 147.389 29.225C148.006 29.225 148.581 29.1333 149.114 28.95C149.647 28.7667 150.122 28.5167 150.539 28.2C150.956 27.8667 151.272 27.4833 151.489 27.05C151.722 26.6167 151.839 26.15 151.839 25.65V25.1L152.289 25.625H147.114V22.725H155.039C155.072 22.9083 155.097 23.1167 155.114 23.35C155.131 23.5667 155.139 23.7833 155.139 24C155.156 24.2 155.164 24.375 155.164 24.525C155.164 25.675 154.964 26.725 154.564 27.675C154.164 28.6083 153.597 29.4167 152.864 30.1C152.147 30.7833 151.306 31.3167 150.339 31.7C149.389 32.0667 148.356 32.25 147.239 32.25ZM159.201 32.275C158.601 32.275 158.134 32.1 157.801 31.75C157.484 31.4 157.326 30.9083 157.326 30.275C157.326 29.6917 157.493 29.2167 157.826 28.85C158.176 28.4667 158.634 28.275 159.201 28.275C159.801 28.275 160.259 28.45 160.576 28.8C160.909 29.1333 161.076 29.625 161.076 30.275C161.076 30.8583 160.901 31.3417 160.551 31.725C160.218 32.0917 159.768 32.275 159.201 32.275ZM171.47 32.25C170.203 32.25 169.045 32.0333 167.995 31.6C166.945 31.1667 166.036 30.55 165.27 29.75C164.503 28.9333 163.903 27.975 163.47 26.875C163.053 25.7583 162.845 24.5417 162.845 23.225C162.845 21.9583 163.07 20.7833 163.52 19.7C163.97 18.6167 164.595 17.6667 165.395 16.85C166.195 16.0333 167.128 15.4 168.195 14.95C169.261 14.5 170.42 14.275 171.67 14.275C172.52 14.275 173.345 14.4 174.145 14.65C174.945 14.9 175.678 15.25 176.345 15.7C177.011 16.1333 177.57 16.6417 178.02 17.225L175.945 19.5C175.511 19.05 175.061 18.675 174.595 18.375C174.145 18.0583 173.67 17.825 173.17 17.675C172.686 17.5083 172.186 17.425 171.67 17.425C170.903 17.425 170.178 17.5667 169.495 17.85C168.828 18.1333 168.245 18.5333 167.745 19.05C167.261 19.5667 166.878 20.1833 166.595 20.9C166.311 21.6 166.17 22.3833 166.17 23.25C166.17 24.1333 166.303 24.9333 166.57 25.65C166.853 26.3667 167.245 26.9833 167.745 27.5C168.261 28.0167 168.87 28.4167 169.57 28.7C170.286 28.9667 171.07 29.1 171.92 29.1C172.47 29.1 173.003 29.025 173.52 28.875C174.036 28.725 174.511 28.5167 174.945 28.25C175.395 27.9667 175.803 27.6417 176.17 27.275L177.77 29.85C177.37 30.3 176.836 30.7083 176.17 31.075C175.503 31.4417 174.753 31.7333 173.92 31.95C173.103 32.15 172.286 32.25 171.47 32.25ZM180.585 32V13.5H183.635V21.525L183.06 21.825C183.226 21.225 183.551 20.6833 184.035 20.2C184.518 19.7 185.093 19.3 185.76 19C186.426 18.7 187.11 18.55 187.81 18.55C188.81 18.55 189.643 18.75 190.31 19.15C190.993 19.55 191.501 20.15 191.835 20.95C192.185 21.75 192.36 22.75 192.36 23.95V32H189.285V24.175C189.285 23.5083 189.193 22.9583 189.01 22.525C188.826 22.075 188.543 21.75 188.16 21.55C187.776 21.3333 187.31 21.2333 186.76 21.25C186.31 21.25 185.893 21.325 185.51 21.475C185.143 21.6083 184.818 21.8083 184.535 22.075C184.268 22.325 184.051 22.6167 183.885 22.95C183.735 23.2833 183.66 23.65 183.66 24.05V32H182.135C181.835 32 181.551 32 181.285 32C181.035 32 180.801 32 180.585 32ZM200.794 32.25C199.711 32.25 198.727 31.95 197.844 31.35C196.961 30.75 196.252 29.9333 195.719 28.9C195.186 27.8667 194.919 26.6917 194.919 25.375C194.919 24.0583 195.186 22.8833 195.719 21.85C196.252 20.8167 196.977 20.0083 197.894 19.425C198.811 18.8417 199.844 18.55 200.994 18.55C201.661 18.55 202.269 18.65 202.819 18.85C203.369 19.0333 203.852 19.3 204.269 19.65C204.686 20 205.027 20.4 205.294 20.85C205.577 21.3 205.769 21.7833 205.869 22.3L205.194 22.125V18.825H208.294V32H205.169V28.85L205.894 28.725C205.777 29.175 205.561 29.6167 205.244 30.05C204.944 30.4667 204.561 30.8417 204.094 31.175C203.644 31.4917 203.136 31.75 202.569 31.95C202.019 32.15 201.427 32.25 200.794 32.25ZM201.644 29.525C202.361 29.525 202.994 29.35 203.544 29C204.094 28.65 204.519 28.1667 204.819 27.55C205.136 26.9167 205.294 26.1917 205.294 25.375C205.294 24.575 205.136 23.8667 204.819 23.25C204.519 22.6333 204.094 22.15 203.544 21.8C202.994 21.45 202.361 21.275 201.644 21.275C200.927 21.275 200.294 21.45 199.744 21.8C199.211 22.15 198.794 22.6333 198.494 23.25C198.194 23.8667 198.044 24.575 198.044 25.375C198.044 26.1917 198.194 26.9167 198.494 27.55C198.794 28.1667 199.211 28.65 199.744 29C200.294 29.35 200.927 29.525 201.644 29.525ZM211.859 32V18.825H214.884L214.934 23.025L214.509 22.075C214.692 21.4083 215.009 20.8083 215.459 20.275C215.909 19.7417 216.426 19.325 217.009 19.025C217.609 18.7083 218.234 18.55 218.884 18.55C219.167 18.55 219.434 18.575 219.684 18.625C219.951 18.675 220.167 18.7333 220.334 18.8L219.509 22.175C219.326 22.075 219.101 21.9917 218.834 21.925C218.567 21.8583 218.301 21.825 218.034 21.825C217.617 21.825 217.217 21.9083 216.834 22.075C216.467 22.225 216.142 22.4417 215.859 22.725C215.576 23.0083 215.351 23.3417 215.184 23.725C215.034 24.0917 214.959 24.5083 214.959 24.975V32H211.859Z" fill="black"/>
<path d="M102.668 60.18C101.792 60.18 100.988 60.024 100.256 59.712C99.524 59.4 98.888 58.956 98.348 58.38C97.808 57.792 97.388 57.102 97.088 56.31C96.8 55.518 96.656 54.648 96.656 53.7C96.656 52.8 96.812 51.966 97.124 51.198C97.448 50.418 97.892 49.734 98.456 49.146C99.02 48.558 99.674 48.102 100.418 47.778C101.162 47.454 101.966 47.292 102.83 47.292C103.442 47.292 104.036 47.388 104.612 47.58C105.2 47.76 105.728 48.018 106.196 48.354C106.676 48.678 107.066 49.05 107.366 49.47L106.07 50.82C105.722 50.472 105.368 50.184 105.008 49.956C104.66 49.716 104.3 49.536 103.928 49.416C103.568 49.296 103.202 49.236 102.83 49.236C102.242 49.236 101.69 49.35 101.174 49.578C100.67 49.794 100.226 50.1 99.842 50.496C99.47 50.892 99.176 51.366 98.96 51.918C98.744 52.458 98.636 53.052 98.636 53.7C98.636 54.384 98.738 55.008 98.942 55.572C99.158 56.124 99.458 56.598 99.842 56.994C100.226 57.39 100.682 57.696 101.21 57.912C101.75 58.116 102.344 58.218 102.992 58.218C103.388 58.218 103.778 58.164 104.162 58.056C104.546 57.948 104.906 57.792 105.242 57.588C105.578 57.384 105.884 57.144 106.16 56.868L107.132 58.452C106.856 58.776 106.478 59.07 105.998 59.334C105.53 59.598 105.002 59.808 104.414 59.964C103.838 60.108 103.256 60.18 102.668 60.18ZM112.941 60.18C112.161 60.18 111.447 59.964 110.799 59.532C110.163 59.1 109.653 58.512 109.269 57.768C108.885 57.024 108.693 56.184 108.693 55.248C108.693 54.3 108.885 53.46 109.269 52.728C109.665 51.984 110.193 51.402 110.853 50.982C111.525 50.562 112.275 50.352 113.103 50.352C113.595 50.352 114.045 50.424 114.453 50.568C114.861 50.712 115.215 50.916 115.515 51.18C115.827 51.432 116.079 51.726 116.271 52.062C116.475 52.398 116.601 52.758 116.649 53.142L116.235 52.998V50.55H118.107V60H116.235V57.75L116.667 57.624C116.595 57.948 116.445 58.266 116.217 58.578C116.001 58.878 115.719 59.148 115.371 59.388C115.035 59.628 114.657 59.82 114.237 59.964C113.829 60.108 113.397 60.18 112.941 60.18ZM113.427 58.47C113.991 58.47 114.489 58.332 114.921 58.056C115.353 57.78 115.689 57.402 115.929 56.922C116.181 56.43 116.307 55.872 116.307 55.248C116.307 54.636 116.181 54.09 115.929 53.61C115.689 53.13 115.353 52.752 114.921 52.476C114.489 52.2 113.991 52.062 113.427 52.062C112.875 52.062 112.383 52.2 111.951 52.476C111.531 52.752 111.195 53.13 110.943 53.61C110.703 54.09 110.583 54.636 110.583 55.248C110.583 55.872 110.703 56.43 110.943 56.922C111.195 57.402 111.531 57.78 111.951 58.056C112.383 58.332 112.875 58.47 113.427 58.47ZM120.731 60V46.68H122.585V60H120.731ZM125.249 60V46.68H127.103V60H125.249ZM139.023 60.18C138.099 60.18 137.271 59.97 136.539 59.55C135.819 59.118 135.249 58.536 134.829 57.804C134.409 57.06 134.199 56.214 134.199 55.266C134.199 54.318 134.409 53.478 134.829 52.746C135.249 52.002 135.819 51.42 136.539 51C137.271 50.568 138.099 50.352 139.023 50.352C139.935 50.352 140.751 50.568 141.471 51C142.203 51.42 142.779 52.002 143.199 52.746C143.619 53.478 143.829 54.318 143.829 55.266C143.829 56.214 143.619 57.06 143.199 57.804C142.779 58.536 142.203 59.118 141.471 59.55C140.751 59.97 139.935 60.18 139.023 60.18ZM139.023 58.488C139.587 58.488 140.091 58.35 140.535 58.074C140.979 57.786 141.327 57.402 141.579 56.922C141.831 56.43 141.951 55.878 141.939 55.266C141.951 54.642 141.831 54.09 141.579 53.61C141.327 53.118 140.979 52.734 140.535 52.458C140.091 52.182 139.587 52.044 139.023 52.044C138.459 52.044 137.949 52.188 137.493 52.476C137.049 52.752 136.701 53.136 136.449 53.628C136.197 54.108 136.077 54.654 136.089 55.266C136.077 55.878 136.197 56.43 136.449 56.922C136.701 57.402 137.049 57.786 137.493 58.074C137.949 58.35 138.459 58.488 139.023 58.488ZM146.524 60V49.488C146.524 48.948 146.644 48.468 146.884 48.048C147.124 47.628 147.454 47.298 147.874 47.058C148.294 46.818 148.78 46.698 149.332 46.698C149.716 46.698 150.076 46.77 150.412 46.914C150.748 47.058 151.018 47.25 151.222 47.49L150.592 48.912C150.436 48.768 150.262 48.654 150.07 48.57C149.89 48.474 149.716 48.426 149.548 48.426C149.296 48.426 149.08 48.468 148.9 48.552C148.732 48.624 148.606 48.744 148.522 48.912C148.438 49.068 148.396 49.26 148.396 49.488V60H147.46C147.304 60 147.148 60 146.992 60C146.836 60 146.68 60 146.524 60ZM145.012 52.422V50.712H150.628V52.422H145.012ZM163.189 60.18C162.313 60.18 161.509 60.024 160.777 59.712C160.045 59.4 159.409 58.956 158.869 58.38C158.329 57.792 157.909 57.102 157.609 56.31C157.321 55.518 157.177 54.648 157.177 53.7C157.177 52.8 157.333 51.966 157.645 51.198C157.969 50.418 158.413 49.734 158.977 49.146C159.541 48.558 160.195 48.102 160.939 47.778C161.683 47.454 162.487 47.292 163.351 47.292C163.963 47.292 164.557 47.388 165.133 47.58C165.721 47.76 166.249 48.018 166.717 48.354C167.197 48.678 167.587 49.05 167.887 49.47L166.591 50.82C166.243 50.472 165.889 50.184 165.529 49.956C165.181 49.716 164.821 49.536 164.449 49.416C164.089 49.296 163.723 49.236 163.351 49.236C162.763 49.236 162.211 49.35 161.695 49.578C161.191 49.794 160.747 50.1 160.363 50.496C159.991 50.892 159.697 51.366 159.481 51.918C159.265 52.458 159.157 53.052 159.157 53.7C159.157 54.384 159.259 55.008 159.463 55.572C159.679 56.124 159.979 56.598 160.363 56.994C160.747 57.39 161.203 57.696 161.731 57.912C162.271 58.116 162.865 58.218 163.513 58.218C163.909 58.218 164.299 58.164 164.683 58.056C165.067 57.948 165.427 57.792 165.763 57.588C166.099 57.384 166.405 57.144 166.681 56.868L167.653 58.452C167.377 58.776 166.999 59.07 166.519 59.334C166.051 59.598 165.523 59.808 164.935 59.964C164.359 60.108 163.777 60.18 163.189 60.18ZM170.996 60V48.138H172.85V60H170.996ZM169.034 52.35V50.55H175.046V52.35H169.034ZM176.734 60V46.68H178.588V52.494L178.264 52.71C178.384 52.29 178.618 51.906 178.966 51.558C179.314 51.198 179.728 50.91 180.208 50.694C180.688 50.466 181.18 50.352 181.684 50.352C182.404 50.352 183.004 50.496 183.484 50.784C183.964 51.06 184.324 51.486 184.564 52.062C184.804 52.638 184.924 53.364 184.924 54.24V60H183.07V54.366C183.07 53.826 182.998 53.382 182.854 53.034C182.71 52.674 182.488 52.416 182.188 52.26C181.888 52.092 181.516 52.02 181.072 52.044C180.712 52.044 180.382 52.104 180.082 52.224C179.782 52.332 179.518 52.488 179.29 52.692C179.074 52.896 178.9 53.136 178.768 53.412C178.648 53.676 178.588 53.964 178.588 54.276V60H177.67C177.514 60 177.358 60 177.202 60C177.046 60 176.89 60 176.734 60ZM190.752 60.18C190.08 60.18 189.492 60.024 188.988 59.712C188.496 59.4 188.112 58.962 187.836 58.398C187.572 57.834 187.44 57.162 187.44 56.382V50.55H189.294V55.878C189.294 56.43 189.378 56.91 189.546 57.318C189.726 57.714 189.978 58.02 190.302 58.236C190.638 58.452 191.04 58.56 191.508 58.56C191.856 58.56 192.174 58.506 192.462 58.398C192.75 58.278 192.996 58.116 193.2 57.912C193.416 57.708 193.584 57.462 193.704 57.174C193.824 56.886 193.884 56.574 193.884 56.238V50.55H195.738V60H193.884V58.02L194.208 57.804C194.064 58.248 193.818 58.65 193.47 59.01C193.134 59.37 192.732 59.658 192.264 59.874C191.796 60.078 191.292 60.18 190.752 60.18ZM198.374 60V46.68H200.228V60H198.374ZM202.856 60V46.68H204.71V52.494L204.386 52.71C204.506 52.29 204.74 51.906 205.088 51.558C205.436 51.198 205.85 50.91 206.33 50.694C206.81 50.466 207.302 50.352 207.806 50.352C208.526 50.352 209.126 50.496 209.606 50.784C210.086 51.06 210.446 51.486 210.686 52.062C210.926 52.638 211.046 53.364 211.046 54.24V60H209.192V54.366C209.192 53.826 209.12 53.382 208.976 53.034C208.832 52.674 208.61 52.416 208.31 52.26C208.01 52.092 207.638 52.02 207.194 52.044C206.834 52.044 206.504 52.104 206.204 52.224C205.904 52.332 205.64 52.488 205.412 52.692C205.196 52.896 205.022 53.136 204.89 53.412C204.77 53.676 204.71 53.964 204.71 54.276V60H203.792C203.636 60 203.48 60 203.324 60C203.168 60 203.012 60 202.856 60ZM216.873 60.18C216.201 60.18 215.613 60.024 215.109 59.712C214.617 59.4 214.233 58.962 213.957 58.398C213.693 57.834 213.561 57.162 213.561 56.382V50.55H215.415V55.878C215.415 56.43 215.499 56.91 215.667 57.318C215.847 57.714 216.099 58.02 216.423 58.236C216.759 58.452 217.161 58.56 217.629 58.56C217.977 58.56 218.295 58.506 218.583 58.398C218.871 58.278 219.117 58.116 219.321 57.912C219.537 57.708 219.705 57.462 219.825 57.174C219.945 56.886 220.005 56.574 220.005 56.238V50.55H221.859V60H220.005V58.02L220.329 57.804C220.185 58.248 219.939 58.65 219.591 59.01C219.255 59.37 218.853 59.658 218.385 59.874C217.917 60.078 217.413 60.18 216.873 60.18ZM117.267 83L122.487 71.624L122.703 72.2H116.331V70.4H124.125L124.377 71.642L119.355 83H117.267ZM127.473 83V71.138H129.327V83H127.473ZM125.511 75.35V73.55H131.523V75.35H125.511ZM133.211 83V69.68H135.065V75.494L134.741 75.71C134.861 75.29 135.095 74.906 135.443 74.558C135.791 74.198 136.205 73.91 136.685 73.694C137.165 73.466 137.657 73.352 138.161 73.352C138.881 73.352 139.481 73.496 139.961 73.784C140.441 74.06 140.801 74.486 141.041 75.062C141.281 75.638 141.401 76.364 141.401 77.24V83H139.547V77.366C139.547 76.826 139.475 76.382 139.331 76.034C139.187 75.674 138.965 75.416 138.665 75.26C138.365 75.092 137.993 75.02 137.549 75.044C137.189 75.044 136.859 75.104 136.559 75.224C136.259 75.332 135.995 75.488 135.767 75.692C135.551 75.896 135.377 76.136 135.245 76.412C135.125 76.676 135.065 76.964 135.065 77.276V83H134.147C133.991 83 133.835 83 133.679 83C133.523 83 133.367 83 133.211 83ZM149.429 83V70.4H157.367V72.272H151.373V81.128H157.367V83H149.429ZM150.311 77.474V75.602H156.377V77.474H150.311ZM163.872 83.18C163.008 83.18 162.234 82.97 161.55 82.55C160.878 82.118 160.344 81.536 159.948 80.804C159.552 80.06 159.354 79.214 159.354 78.266C159.354 77.318 159.546 76.478 159.93 75.746C160.326 75.002 160.86 74.42 161.532 74C162.204 73.568 162.966 73.352 163.818 73.352C164.286 73.352 164.736 73.43 165.168 73.586C165.612 73.73 166.008 73.934 166.356 74.198C166.704 74.45 166.974 74.732 167.166 75.044C167.37 75.344 167.472 75.65 167.472 75.962L166.932 75.998V69.68H168.786V83H166.932V80.75H167.292C167.292 81.038 167.196 81.326 167.004 81.614C166.812 81.89 166.554 82.148 166.23 82.388C165.918 82.628 165.552 82.82 165.132 82.964C164.724 83.108 164.304 83.18 163.872 83.18ZM164.124 81.578C164.688 81.578 165.186 81.434 165.618 81.146C166.05 80.858 166.386 80.468 166.626 79.976C166.878 79.472 167.004 78.902 167.004 78.266C167.004 77.63 166.878 77.066 166.626 76.574C166.386 76.07 166.05 75.674 165.618 75.386C165.186 75.098 164.688 74.954 164.124 74.954C163.56 74.954 163.062 75.098 162.63 75.386C162.198 75.674 161.856 76.07 161.604 76.574C161.364 77.066 161.244 77.63 161.244 78.266C161.244 78.902 161.364 79.472 161.604 79.976C161.856 80.468 162.198 80.858 162.63 81.146C163.062 81.434 163.56 81.578 164.124 81.578ZM171.644 83V73.55H173.498V83H171.644ZM172.544 71.462C172.148 71.462 171.842 71.36 171.626 71.156C171.41 70.952 171.302 70.664 171.302 70.292C171.302 69.944 171.41 69.662 171.626 69.446C171.854 69.23 172.16 69.122 172.544 69.122C172.94 69.122 173.246 69.224 173.462 69.428C173.678 69.632 173.786 69.92 173.786 70.292C173.786 70.64 173.672 70.922 173.444 71.138C173.228 71.354 172.928 71.462 172.544 71.462ZM177.518 83V71.138H179.372V83H177.518ZM175.556 75.35V73.55H181.568V75.35H175.556ZM183.562 83V73.55H185.416V83H183.562ZM184.462 71.462C184.066 71.462 183.76 71.36 183.544 71.156C183.328 70.952 183.22 70.664 183.22 70.292C183.22 69.944 183.328 69.662 183.544 69.446C183.772 69.23 184.078 69.122 184.462 69.122C184.858 69.122 185.164 69.224 185.38 69.428C185.596 69.632 185.704 69.92 185.704 70.292C185.704 70.64 185.59 70.922 185.362 71.138C185.146 71.354 184.846 71.462 184.462 71.462ZM192.514 83.18C191.59 83.18 190.762 82.97 190.03 82.55C189.31 82.118 188.74 81.536 188.32 80.804C187.9 80.06 187.69 79.214 187.69 78.266C187.69 77.318 187.9 76.478 188.32 75.746C188.74 75.002 189.31 74.42 190.03 74C190.762 73.568 191.59 73.352 192.514 73.352C193.426 73.352 194.242 73.568 194.962 74C195.694 74.42 196.27 75.002 196.69 75.746C197.11 76.478 197.32 77.318 197.32 78.266C197.32 79.214 197.11 80.06 196.69 80.804C196.27 81.536 195.694 82.118 194.962 82.55C194.242 82.97 193.426 83.18 192.514 83.18ZM192.514 81.488C193.078 81.488 193.582 81.35 194.026 81.074C194.47 80.786 194.818 80.402 195.07 79.922C195.322 79.43 195.442 78.878 195.43 78.266C195.442 77.642 195.322 77.09 195.07 76.61C194.818 76.118 194.47 75.734 194.026 75.458C193.582 75.182 193.078 75.044 192.514 75.044C191.95 75.044 191.44 75.188 190.984 75.476C190.54 75.752 190.192 76.136 189.94 76.628C189.688 77.108 189.568 77.654 189.58 78.266C189.568 78.878 189.688 79.43 189.94 79.922C190.192 80.402 190.54 80.786 190.984 81.074C191.44 81.35 191.95 81.488 192.514 81.488ZM199.34 83V73.55H201.194V75.494L200.87 75.71C200.99 75.29 201.224 74.906 201.572 74.558C201.92 74.198 202.334 73.91 202.814 73.694C203.294 73.466 203.786 73.352 204.29 73.352C205.01 73.352 205.61 73.496 206.09 73.784C206.57 74.06 206.93 74.486 207.17 75.062C207.41 75.638 207.53 76.364 207.53 77.24V83H205.676V77.366C205.676 76.826 205.604 76.382 205.46 76.034C205.316 75.674 205.094 75.416 204.794 75.26C204.494 75.092 204.122 75.02 203.678 75.044C203.318 75.044 202.988 75.104 202.688 75.224C202.388 75.332 202.124 75.488 201.896 75.692C201.68 75.896 201.506 76.136 201.374 76.412C201.254 76.676 201.194 76.964 201.194 77.276V83H200.276C200.12 83 199.964 83 199.808 83C199.652 83 199.496 83 199.34 83Z" fill="black"/>
</svg>
